# xmcd CD database file
#
# Track frame offsets:
#	183
#	11968
#	22688
#	40250
#	50973
#	62488
#	73173
#	82693
#	90320
#	103653
#	117193
#	128668
#	138970
#	149668
#
# Disc length: 2124 seconds
#
# Revision: 3
# Processed by: cddbd v1.5.2PL0 Copyright (c) Steve Scherf et al.
# Submitted via: CDex 1.70beta2
#
DISCID=ba084a0e
DTITLE=Various Artist - Country and Western Vol. 2
DYEAR=1900
DGENRE=
TTITLE0=Willie Nelson - Is There Something On Your Mind
TTITLE1=Waylon Jennings - Sally Is A Good Old Girl
TTITLE2=Johnny Paycheck - Billy Jack Washburn
TTITLE3=Billy Jo Spears - I'm So Lonesome I Could Cry
TTITLE4=Kenny Rogers - Me And Bobby Magee
TTITLE5=Stonewall Jackson - Waterloo
TTITLE6=George Jones - The Race Is On
TTITLE7=Dolly Parton - Puppy Love
TTITLE8=Faron Young - There Goes My Everything
TTITLE9=Kenny Rogers - Shine On Ruby Mountain
TTITLE10=Charlie Rich - Little Bit Sweet
TTITLE11=Willie Nelson - Broken Promises
TTITLE12=Tex Ritter - Have I Stayed Away Too Long
TTITLE13=Dave Dudley - Last Day In The Mine
EXTD=Object Enterprises Ltd.
EXTT0=
EXTT1=
EXTT2=
EXTT3=
EXTT4=
EXTT5=
EXTT6=
EXTT7=
EXTT8=
EXTT9=
EXTT10=
EXTT11=
EXTT12=
EXTT13=
PLAYORDER=
